<svg xmlns="http://www.w3.org/2000/svg" width="44" height="44" viewBox="0 0 44 44">
  <path id="Kształt_907" data-name="Kształt 907" d="M141.355,7197.711h-5.2v-8.819c3.276-.363,5.844-3.461,5.844-7.217,0-3.694-2.484-6.75-5.683-7.2a6.036,6.036,0,0,0,1.242-2.81.645.645,0,0,0-1.273-.2,4.774,4.774,0,0,1-3.082,3.722,1.172,1.172,0,0,0-.749.875,3.943,3.943,0,0,1-2.017,2.838,3.787,3.787,0,0,1-2.97.047,3.937,3.937,0,0,1-1.658-1.257v-2.785l2.816-2.815a.645.645,0,0,0-.912-.912l-1.9,1.9v-4.268a.644.644,0,1,0-1.289,0v3.031l-1.9-1.9a.645.645,0,0,0-.911.912l2.816,2.816v4.022a3.952,3.952,0,0,1-1.657,1.257,3.787,3.787,0,0,1-2.97-.047,3.4,3.4,0,0,1-1.469-1.381,37.084,37.084,0,0,0-1.936-11,4.869,4.869,0,0,1,.516-.242,1.347,1.347,0,0,0,.849-1.413,2.9,2.9,0,0,1-.02-.34,2.831,2.831,0,0,1,2.153-2.754,1.368,1.368,0,0,0,1.037-1.339,4.142,4.142,0,1,1,8.284.007,1.366,1.366,0,0,0,1.036,1.332,2.838,2.838,0,0,1,2.133,3.093,1.349,1.349,0,0,0,.849,1.414,4.792,4.792,0,0,1,2.669,2.636.644.644,0,0,0,1.193-.487,6.084,6.084,0,0,0-3.39-3.348.063.063,0,0,1-.042-.061,4.125,4.125,0,0,0-3.1-4.5.085.085,0,0,1-.057-.087,5.431,5.431,0,1,0-10.862.006.083.083,0,0,1-.056.081,4.118,4.118,0,0,0-3.133,4.005,4.218,4.218,0,0,0,.03.495c.014.112-.4.2-.487.258-.161-.475-.326-.941-.5-1.4-2.763-7.34-5.535-8.881-7.372-8.881-3.208,0-5.66,4.52-7.153,8.311a.644.644,0,1,0,1.2.472c1.875-4.762,4.045-7.494,5.954-7.494,1.993,0,4.241,2.933,6.167,8.046A42.139,42.139,0,0,1,117.148,7177c0,5.3-3.661,9.657-8.285,10.031v-5.23h0v-2.464l2.69-2.69a.645.645,0,0,0-.911-.912l-1.779,1.778v-2.7a.645.645,0,0,0-1.289,0v4.251h0v1.175l-1.779-1.778a.645.645,0,0,0-.911.912l2.69,2.69v4.964c-4.624-.374-8.285-4.729-8.285-10.031a40.092,40.092,0,0,1,1.993-10.445.645.645,0,0,0-1.229-.39A40.819,40.819,0,0,0,98,7177c0,6.016,4.239,10.953,9.574,11.323v9.384H98.645a.644.644,0,1,0,0,1.289h42.711a.644.644,0,1,0,0-1.289Zm-16.834,0H108.863v-9.384c4.634-.322,8.44-4.089,9.36-9.016a4.539,4.539,0,0,0,1.114.752,5.143,5.143,0,0,0,5.184-.582Zm10.345,0h-9.056v-18.229a5.14,5.14,0,0,0,1.183.664,5.465,5.465,0,0,0,1.963.374,5.813,5.813,0,0,1,.067,1.154c0,3.756,2.568,6.854,5.844,7.217Zm.645-16.481a.644.644,0,0,0-.645.645v3.543h0v2.173c-2.563-.366-4.554-2.879-4.554-5.917a6.821,6.821,0,0,1,.144-1.393,5.648,5.648,0,0,0,3.251-3.905,6.018,6.018,0,0,0,1.228-.628c3.13-.4,5.776,2.439,5.776,5.927,0,3.038-1.991,5.551-4.555,5.917v-1.907l2.038-2.038a.645.645,0,1,0-.912-.912l-1.126,1.126v-1.987A.644.644,0,0,0,135.512,7181.23Z" transform="translate(-98 -7155)" fill="#c3966a"/>
</svg>
