<svg xmlns="http://www.w3.org/2000/svg" width="65" height="43" viewBox="0 0 65 43">
  <path id="Kształt_910" data-name="Kształt 910" d="M387.261,7194.423a.667.667,0,0,1,.578-.744c1.988-.256,4.047-.6,6.118-1.035l.231-.047V7189.6h-2.409a.676.676,0,0,1-.553-.285.654.654,0,0,1-.076-.608l3.081-8.119a.673.673,0,0,1,1.255,0l.755,1.99,3.277-3.239a.673.673,0,0,1,.948,0l.553.545,9.65-9.534a.673.673,0,0,1,.948,0,.654.654,0,0,1,0,.935l-9.65,9.536,3.633,3.59a.664.664,0,0,1,.2.469v4.581l.379-.121c.668-.213,1.383-.444,2.189-.708l.2-.065v-4.7a.653.653,0,0,1,.2-.468l3.079-3.044a.674.674,0,0,1,.948,0l1.835,1.811.128-.505a.26.26,0,0,1,.009-.033l3.081-9.131a.673.673,0,0,1,1.271,0l2.786,8.261,2.1-6.231a.672.672,0,0,1,1.271,0l.941,2.788,6.165-6.091a.674.674,0,0,1,.948,0l6.161,6.087a.655.655,0,0,1,.2.47v1.806l2.039-1.344a.685.685,0,0,1,.744,0l2.685,1.77,2.476-6.524a.673.673,0,0,1,1.255,0l3.081,8.117a.657.657,0,0,1-.076.61.677.677,0,0,1-.553.286h-2.409v2.9l.208.062a25.059,25.059,0,0,1,2.467.841.661.661,0,0,1-.264,1.271.7.7,0,0,1-.264-.052c-.07-.031-7.21-2.992-19.245-2.992a36.89,36.89,0,0,0-6.277.565l-.24.042v2.79a.671.671,0,0,1-1.342,0v-2.534l-.35.074a122.074,122.074,0,0,0-12.595,3.691c-6.67,2.2-14.229,4.7-23.007,5.836a.768.768,0,0,1-.088.005A.668.668,0,0,1,387.261,7194.423Zm8.267-2.118.358-.081c2.58-.594,5.318-1.338,8.366-2.277l.2-.063v-4.726l-4.464-4.411-3.234,3.2,1.807,4.767a.656.656,0,0,1-.076.61.673.673,0,0,1-.551.284h-2.411Zm-2.783-4.025h4.225l-2.113-5.569Zm17.158-4.137v3.985l.7-.231c1.28-.424,2.6-.861,3.915-1.28l.2-.065v-2.409l-2.409-2.382Zm5.964-.742a.653.653,0,0,1,.2.468v2.261l.376-.116c.386-.117.773-.234,1.157-.348l.206-.062v-3.1h-2.846Zm3.276,1.818.37-.1c.46-.126.924-.249,1.378-.365l.448-.114-.309-.361-.02-.023a.662.662,0,0,1-.092-.6l.39-1.157h-2.165Zm26.7-.594.228.051c.39.087.778.177,1.152.269l.361.09V7182.5H445.84Zm-6.161-3.445v2.448l.256.029c1.441.167,2.862.377,4.22.628l.345.065v-3.17l-2.411-1.589Zm-1.656,2.288.316.027v-5.438l-5.491-5.426-5.489,5.426v2.662l.9,2.674.231-.022c1.136-.108,2.257-.164,3.332-.164C433.915,7183.207,436,7183.295,438.023,7183.468Zm-15.54-.262h4.3l-2.151-6.374Zm23.653-2.028h4.227l-2.113-5.571Zm-29.812,0h4.3l-2.152-6.376Zm-15.975,6.75v-1.015a.67.67,0,0,1,1.34,0v1.015a.67.67,0,0,1-1.34,0Zm-13.153-6.634a.66.66,0,0,1,0-.937l23.492-23.214a3.782,3.782,0,0,1,5.3,0l4.021,3.974,8.129-8.032a3.784,3.784,0,0,1,5.305,0l18.357,18.14a.653.653,0,0,1,.2.468.66.66,0,0,1-.2.469.678.678,0,0,1-.948,0l-8.221-8.125-.641.634a2.749,2.749,0,0,1-3.81.04l-.206-.193-2.017,1.992a2.749,2.749,0,0,1-3.852,0l-4.222-4.171-.2.175a.678.678,0,0,1-.441.162.669.669,0,0,1-.473-.193.657.657,0,0,1,0-.937,1.574,1.574,0,0,1,2.21,0l4.077,4.029a1.4,1.4,0,0,0,1.956,0l1.863-1.842a1.58,1.58,0,0,1,2.212,0,1.393,1.393,0,0,0,1.957,0l.641-.632-9.187-9.081a2.432,2.432,0,0,0-3.409,0l-10.7,10.57,1.667,1.649a1.4,1.4,0,0,0,1.957,0l1.885-1.864a.675.675,0,0,1,.946,0,.656.656,0,0,1,0,.937l-1.883,1.862a2.752,2.752,0,0,1-3.853,0l-1.667-1.647-3.041,3a.671.671,0,0,1-.946,0,.654.654,0,0,1,0-.935l.643-.638-2-1.974a.359.359,0,0,0-.251-.1.351.351,0,0,0-.249.1l-1.845,1.824a1.716,1.716,0,0,1-2.4,0l-2.277-2.252-16.939,16.739a.678.678,0,0,1-.948,0Zm25.858-17.244,2,1.972,4.016-3.967-4.023-3.974a2.43,2.43,0,0,0-3.407,0l-5.607,5.538,2.279,2.251a.359.359,0,0,0,.5,0l1.842-1.82a1.706,1.706,0,0,1,2.4,0Zm21.177,15.762v-1.017a.671.671,0,0,1,1.342,0v1.017a.671.671,0,0,1-1.342,0Zm-4.106,0v-1.017a.67.67,0,0,1,1.34,0v1.017a.67.67,0,0,1-1.34,0Z" transform="translate(-387.001 -7152)" fill="#c3966a"/>
</svg>
