<svg xmlns="http://www.w3.org/2000/svg" width="21.033" height="20.978" viewBox="0 0 21.033 20.978">
  <path id="inst-filled.svg_" data-name="inst-filled.svg " d="M963.912,7634a10.489,10.489,0,1,1,10.517-10.489A10.5,10.5,0,0,1,963.912,7634Zm6.165-13.243a3.4,3.4,0,0,0-3.4-3.394H961.15a3.4,3.4,0,0,0-3.4,3.394v5.51a3.4,3.4,0,0,0,3.4,3.393h5.525a3.4,3.4,0,0,0,3.4-3.393Zm-3.4,7.813H961.15a2.308,2.308,0,0,1-2.309-2.3v-5.51a2.309,2.309,0,0,1,2.309-2.3h5.525a2.308,2.308,0,0,1,2.309,2.3v5.51A2.308,2.308,0,0,1,966.675,7628.569Zm-2.762-8.226a3.169,3.169,0,1,0,3.177,3.169A3.177,3.177,0,0,0,963.912,7620.343Zm3.877-.691a.8.8,0,1,0,.235.566A.806.806,0,0,0,967.79,7619.652Zm-3.877,5.937a2.078,2.078,0,1,1,2.083-2.077A2.083,2.083,0,0,1,963.912,7625.589Z" transform="translate(-953.396 -7613.022)" fill="#fff" opacity="0.2"/>
</svg>
