<svg id="Component_2_1" data-name="Component 2 – 1" xmlns="http://www.w3.org/2000/svg" xmlns:xlink="http://www.w3.org/1999/xlink" width="180.485" height="58.234" viewBox="0 0 180.485 58.234">
  <defs>
    <filter id="Kształt_1" x="40.888" y="3.141" width="139.597" height="55.093" filterUnits="userSpaceOnUse">
      <feOffset dy="2" input="SourceAlpha"/>
      <feGaussianBlur stdDeviation="5" result="blur"/>
      <feFlood flood-opacity="0.2"/>
      <feComposite operator="in" in2="blur"/>
      <feComposite in="SourceGraphic"/>
    </filter>
  </defs>
  <g transform="matrix(1, 0, 0, 1, 0, 0)" filter="url(#Kształt_1)">
    <path id="Kształt_1-2" data-name="Kształt 1" d="M139.541,100.256a11.716,11.716,0,0,1-3.826-8.943,12.446,12.446,0,0,1,3.273-8.638,11.9,11.9,0,0,1,9.248-3.938q6.869,0,10.578,4.143A13.069,13.069,0,0,1,162.03,91.9a11.468,11.468,0,0,1-3.331,8.2,12.211,12.211,0,0,1-9.189,3.733A14.026,14.026,0,0,1,139.541,100.256Zm2.579-15.715a10.942,10.942,0,0,0-2.261,7,9.829,9.829,0,0,0,2.622,7.018,8.773,8.773,0,0,0,6.677,2.786,7.987,7.987,0,0,0,6.491-3.148A10.515,10.515,0,0,0,158,91.4a10.716,10.716,0,0,0-2.146-6.861,8.521,8.521,0,0,0-7.1-3.148A8.043,8.043,0,0,0,142.12,84.541Zm41.176,18.68c.194-.1.4-.195.606-.295a1.85,1.85,0,0,0,.783-.816,3.746,3.746,0,0,0,.449-1.445c.048-.493.074-1.15.074-1.966V82.269a5.159,5.159,0,0,0-.074-.919,2.578,2.578,0,0,0-.337-.845,2.436,2.436,0,0,0-.56-.69,4.17,4.17,0,0,0-.882-.493h12.462l.606-.091.495-.2v4.438l-.724-.674a3.722,3.722,0,0,0-1.728-.711,13.117,13.117,0,0,0-2.476-.219,16.044,16.044,0,0,0-1.68.09q-.845.085-1.159.141l-.293.057v6.739h4.579a3.365,3.365,0,0,0,.961-.088l.466-.172v4.057a2.407,2.407,0,0,0-.366-.483,2.175,2.175,0,0,0-.36-.3,3.572,3.572,0,0,0-1.322-.354,14.639,14.639,0,0,0-1.552-.09h-2.406v8.671c.115.036.767.126,1.959.26a27.744,27.744,0,0,0,3.173.205,8.515,8.515,0,0,0,2.668-.324,15.587,15.587,0,0,0,2.057-.857,11.876,11.876,0,0,0,1.625-1.209l-1.713,5.021Zm19.233-.031c.214-.1.433-.195.668-.3a2.044,2.044,0,0,0,.769-.814,3.877,3.877,0,0,0,.375-1.135,8.194,8.194,0,0,0,.1-1.345V82.764a10.185,10.185,0,0,0-.074-1.4,2.741,2.741,0,0,0-.416-1.054,1.872,1.872,0,0,0-.481-.583,4.7,4.7,0,0,0-.8-.409h7.278a4.494,4.494,0,0,0-.783.419,2.271,2.271,0,0,0-.522.6,3.207,3.207,0,0,0-.432,1.2,13.469,13.469,0,0,0-.089,1.777V100.1a16.78,16.78,0,0,0,1.868.288,24.594,24.594,0,0,0,3.144.205,8.153,8.153,0,0,0,2.781-.378c.832-.329,1.363-.547,1.6-.64a9.842,9.842,0,0,0,1.968-1.257l-1.827,4.874Zm-34.014,0c.344-.195.589-.343.719-.436a1.7,1.7,0,0,0,.5-.762,7.325,7.325,0,0,0,.277-1.052,8.774,8.774,0,0,0,.1-1.489V82.122H166.4a9.463,9.463,0,0,0-1.394.105,4.218,4.218,0,0,0-1.243.373,3.158,3.158,0,0,0-.652.433c-.26.2-.438.362-.538.457l1.274-4.464.726.195,1.07.1h15.1l.7-.295-1.276,4.585a2.353,2.353,0,0,0-.259-.657,1.46,1.46,0,0,0-.507-.542,2.1,2.1,0,0,0-.6-.233,3.63,3.63,0,0,0-.637-.057h-4.35V99.535a7.709,7.709,0,0,0,.1,1.345,3.3,3.3,0,0,0,1.933,2.31Zm-41.82,0a3.978,3.978,0,0,0,.767-.469,1.816,1.816,0,0,0,.464-.642,4.7,4.7,0,0,0,.349-.962,5.15,5.15,0,0,0,.132-1.256V91.454H115.276v8.5a6.279,6.279,0,0,0,.1,1.119,3.359,3.359,0,0,0,.423,1.125,1.732,1.732,0,0,0,.474.585,3.684,3.684,0,0,0,.8.411h-7.1c.173-.1.346-.205.522-.321a1.692,1.692,0,0,0,.663-.733,4.895,4.895,0,0,0,.334-1,5.587,5.587,0,0,0,.132-1.273V82.59a6.269,6.269,0,0,0-.1-1.214,2.862,2.862,0,0,0-.38-.962,2.548,2.548,0,0,0-.533-.657,4.677,4.677,0,0,0-.726-.435H117.1a3.571,3.571,0,0,0-.767.435,2.439,2.439,0,0,0-.527.616,2.82,2.82,0,0,0-.43,1.052,7.21,7.21,0,0,0-.1,1.282v6.182h13.1l.031-5.918v-.385a6.26,6.26,0,0,0-.1-1.209,2.873,2.873,0,0,0-.456-1.035,2.161,2.161,0,0,0-.49-.585,4.441,4.441,0,0,0-.726-.435h7.217a3.975,3.975,0,0,0-.752.435,2.567,2.567,0,0,0-.522.616,2.459,2.459,0,0,0-.418,1,9.308,9.308,0,0,0-.074,1.339v17.333a6.324,6.324,0,0,0,.089,1.121,3.351,3.351,0,0,0,.4,1.035,2,2,0,0,0,.495.573,4.567,4.567,0,0,0,.81.423Z" transform="translate(-54 -62.6)" fill="#fff"/>
  </g>
  <g id="svgg" transform="translate(-4.167 -4.853)">
    <path id="path0" d="M15.583,10.886,4.167,17.523V48.066l12.111,7.081,12.111,7.081,12.554-7.25L53.5,47.729V17.912L41.732,11.08C27.478,2.8,29.46,2.817,15.583,10.886M26.5,14.114v3.635l-6.491,0-6.491,0,5.712-3.548c7.183-4.462,7.27-4.463,7.27-.078m13.886,1.645,3.25,1.982-6.491,0-6.491,0V10.426L33.89,12.1c1.782.922,4.7,2.568,6.491,3.658M26.5,25.019c0,3.83-.293,3.83-6.75,0l-5.193-3.08,5.972-.018c5.947-.018,5.971,0,5.971,3.1m10.682.01c-6.64,3.808-6.528,3.808-6.528-.01,0-3.1.027-3.116,5.971-3.106l5.972.01-5.415,3.106M22.72,32.371c.494.429-.446,1.475-2.09,2.324L17.642,36.24l-2.879-5.156-2.879-5.157,4.969,2.832c2.733,1.558,5.373,3.183,5.867,3.611m19.595-1.64c-3.024,5.007-3.969,5.454-6.937,3.284-1.6-1.168,6.127-7.6,9.526-7.935a36.122,36.122,0,0,1-2.589,4.65M12.962,37.886c.035,1-3.107,3.662-4.381,3.716-.428.018-.776-2.888-.774-6.458l.005-6.491,2.559,4.154a23.141,23.141,0,0,1,2.591,5.078m36.007,3.431c-.266.266-1.662-.287-3.1-1.23l-2.616-1.714,2.786-4.628,2.786-4.628.315,5.858c.173,3.222.1,6.076-.169,6.342M26.5,43.712c0,3.427-.194,6.231-.43,6.231-.537,0-5.933-9.585-5.556-9.871a21.671,21.671,0,0,1,5.208-2.56c.428-.017.779,2.772.779,6.2m7.338-5.156c2.625,1.4,2.528,2.737-.561,7.752l-2.559,4.154-.032-6.491c-.035-6.919.055-7.073,3.151-5.416M19.851,49.164c1.845,3.5,1.828,3.5-4.256.1l-4.931-2.756,2.463-1.886C15.882,42.514,16.6,43,19.851,49.164M44.441,47.3c-1.017.677-3.661,2.325-5.877,3.662l-4.028,2.431,1.691-2.764c.93-1.52,2.4-3.934,3.277-5.366,1.525-2.5,1.686-2.536,4.185-.9,2.422,1.587,2.473,1.788.751,2.935" transform="translate(0 0)" fill="#fff" fill-rule="evenodd"/>
  </g>
</svg>
