<svg xmlns="http://www.w3.org/2000/svg" width="21.04" height="20.96" viewBox="0 0 21.04 20.96">
    <path fill="#fff" d="M1005.48 7634a10.48 10.48 0 1 1 7.439-17.89 10.48 10.48 0 0 1-7.439 17.89zm0-14.469c-.023 0-2.626.023-4.315.138h-.04a1.777 1.777 0 0 0-1.193.51 2.524 2.524 0 0 0-.489 1.222 18.517 18.517 0 0 0-.128 2.014v.927a17.631 17.631 0 0 0 .128 1.993 2.783 2.783 0 0 0 .489 1.222 1.808 1.808 0 0 0 1.17.5h.007c.071.009.133.018.183.028.967.1 4.158.119 4.188.119s2.615 0 4.315-.138h.034a1.765 1.765 0 0 0 1.2-.511 2.789 2.789 0 0 0 .489-1.222 18.4 18.4 0 0 0 .128-1.993v-.927a18.517 18.517 0 0 0-.128-2.014 2.793 2.793 0 0 0-.489-1.222 1.654 1.654 0 0 0-1.172-.509h-.062c-1.686-.113-4.289-.136-4.311-.136zm-1.489 6.629v-4.279l4.041 2.19-4.039 2.09z" opacity="0.2" transform="translate(-994.96 -7613.041)"/>
</svg>
